<?xml version="1.0" encoding="UTF-8" standalone="no"?>
<svg
   xmlns:dc="http://purl.org/dc/elements/1.1/"
   xmlns:cc="http://creativecommons.org/ns#"
   xmlns:rdf="http://www.w3.org/1999/02/22-rdf-syntax-ns#"
   xmlns:svg="http://www.w3.org/2000/svg"
   xmlns="http://www.w3.org/2000/svg"
   xmlns:sodipodi="http://sodipodi.sourceforge.net/DTD/sodipodi-0.dtd"
   xmlns:inkscape="http://www.inkscape.org/namespaces/inkscape"
   inkscape:version="1.0 (4035a4fb49, 2020-05-01)"
   sodipodi:docname="ark_repainted.svg"
   viewBox="0 0 516 429.33334"
   height="429.33334"
   width="516"
   id="svg2"
   version="1.1">
  <title
     id="title1002">Ark SVG Repainted</title>
  <metadata
     id="metadata8">
    <rdf:RDF>
      <cc:Work
         rdf:about="">
        <dc:format>image/svg+xml</dc:format>
        <dc:type
           rdf:resource="http://purl.org/dc/dcmitype/StillImage" />
        <dc:title>Ark SVG Repainted</dc:title>
        <cc:license
           rdf:resource="http://creativecommons.org/licenses/by-sa/4.0/" />
        <dc:creator>
          <cc:Agent>
            <dc:title>Sharkbyteprojects</dc:title>
          </cc:Agent>
        </dc:creator>
      </cc:Work>
      <cc:License
         rdf:about="http://creativecommons.org/licenses/by-sa/4.0/">
        <cc:permits
           rdf:resource="http://creativecommons.org/ns#Reproduction" />
        <cc:permits
           rdf:resource="http://creativecommons.org/ns#Distribution" />
        <cc:requires
           rdf:resource="http://creativecommons.org/ns#Notice" />
        <cc:requires
           rdf:resource="http://creativecommons.org/ns#Attribution" />
        <cc:permits
           rdf:resource="http://creativecommons.org/ns#DerivativeWorks" />
        <cc:requires
           rdf:resource="http://creativecommons.org/ns#ShareAlike" />
      </cc:License>
    </rdf:RDF>
  </metadata>
  <defs
     id="defs6" />
  <sodipodi:namedview
     inkscape:current-layer="layer1"
     inkscape:window-maximized="1"
     inkscape:window-y="-8"
     inkscape:window-x="-8"
     inkscape:cy="214.66667"
     inkscape:cx="366.59422"
     inkscape:zoom="1.5838509"
     showgrid="false"
     id="namedview4"
     inkscape:window-height="847"
     inkscape:window-width="1600"
     inkscape:pageshadow="2"
     inkscape:pageopacity="0"
     guidetolerance="10"
     gridtolerance="10"
     objecttolerance="10"
     borderopacity="1"
     bordercolor="#666666"
     pagecolor="#ffffff" />
  <g
     style="display:inline"
     inkscape:label="Image 2"
     id="layer2"
     inkscape:groupmode="layer">
    <path
       id="path979"
       d="m 357.35687,282.22354 22.09804,2.52549 33.46275,-61.87451 -54.92942,-73.87059 -18.3098,6.31372 10.73333,-18.3098 -68.18823,-92.180398 -27.7804,42.933334 113.64706,178.047064 z"
       style="fill:#806600;stroke:none;stroke-width:1px;stroke-linecap:butt;stroke-linejoin:miter;stroke-opacity:1" />
    <path
       id="path986"
       d="M 254.44314,87.760786 368.0902,265.80785 356.09413,267.70197 250.65491,102.28236 Z"
       style="fill:#554400;stroke:none;stroke-width:1px;stroke-linecap:butt;stroke-linejoin:miter;stroke-opacity:1" />
    <path
       id="path988"
       d="m 368.0902,265.80785 -10.73333,16.41569 -8.20784,1.89411 6.9451,-16.41568 z"
       style="fill:#554400;stroke:none;stroke-width:1px;stroke-linecap:butt;stroke-linejoin:miter;stroke-opacity:1" />
    <path
       sodipodi:nodetypes="ccccc"
       id="path990"
       d="m 357.35687,282.22354 -8.20784,1.89411 24.3098,6.20785 5.99608,-5.57647 z"
       style="fill:#554400;stroke:none;stroke-width:1px;stroke-linecap:butt;stroke-linejoin:miter;stroke-opacity:1" />
    <path
       id="path992"
       d="m 156.5804,285.3804 -11.99608,-22.72941 31.56863,-49.24706 126.90588,1.26274 -31.56863,-75.13333 0.63138,34.09412 -70.71373,0.63137 45.45882,-89.654906 -26.51765,-39.776472 -1.89411,2.52549 -4.41961,6.313726 15.15294,16.415687 -22.72941,-5.682353 -49.87843,71.345098 4.4196,15.78432 -10.73333,-7.57648 -55.560785,78.92158 35.988235,61.87451 z"
       style="fill:#806600;stroke:none;stroke-width:1px;stroke-linecap:butt;stroke-linejoin:miter;stroke-opacity:1" />
    <path
       sodipodi:nodetypes="ccccccccc"
       id="path994"
       d="m 156.5804,285.3804 8.20784,2.52549 -12.62745,-20.8353 27.78037,-42.30196 118.46074,-0.63137 4.65693,-9.47059 -126.90588,-1.26274 -31.56863,49.24706 z"
       style="fill:#554400;stroke:none;stroke-width:1px;stroke-linecap:butt;stroke-linejoin:miter;stroke-opacity:1" />
    <path
       id="path996"
       d="m 211.50981,171.73334 -10.10196,2.52549 45.45882,-89.654906 -1.89412,22.729416 z"
       style="fill:#554400;stroke:none;stroke-width:1px;stroke-linecap:butt;stroke-linejoin:miter;stroke-opacity:1" />
  </g>
  <g
     style="display:inline"
     id="g10"
     inkscape:label="Image"
     inkscape:groupmode="layer">
    <path
       id="path894"
       d="M 169.83922,167.31373 214.0353,99.756865"
       style="fill:none;stroke:#ffd700;stroke-width:1px;stroke-linecap:butt;stroke-linejoin:miter;stroke-opacity:1" />
    <path
       sodipodi:nodetypes="cccccc"
       d="m 214.60547,100.4043 c 7.40675,-0.12604 13.33877,-5.608162 13.33984,-12.328128 -3e-5,-6.810419 -6.08598,-12.331491 -13.59375,-12.332031 -0.0319,-1.02e-4 -0.0638,-1.02e-4 -0.0957,0 -7.47113,0.04727 -11.50015,7.554682 -11.5,14.332031 -1e-5,1.759139 -33.78512,46.325378 -32.9832,47.927068"
       style="fill:none;stroke:#ffd700;stroke-width:1.337;stroke-miterlimit:4;stroke-dasharray:none;stroke-opacity:1"
       id="path906" />
    <ellipse
       ry="6.7275991"
       rx="6.7275987"
       cy="188.46471"
       cx="160.05295"
       id="path913"
       style="fill:none;fill-opacity:1;stroke:#ffd700;stroke-width:1.14063;stroke-miterlimit:4;stroke-dasharray:none;stroke-opacity:1" />
    <ellipse
       ry="7.3212171"
       rx="6.6898441"
       cy="161.84117"
       cx="157.52745"
       id="path915"
       style="fill:none;fill-opacity:1;stroke:#ffd700;stroke-width:1.216;stroke-miterlimit:4;stroke-dasharray:1.216, 2.432;stroke-dashoffset:0;stroke-opacity:1" />
    <path
       id="path917"
       d="m 174.8902,178.67844 5.68235,-14.52157 10.10196,11.99608 z"
       style="fill:none;stroke:#ffd700;stroke-width:1px;stroke-linecap:butt;stroke-linejoin:miter;stroke-opacity:1" />
    <ellipse
       style="fill:none;fill-opacity:1;stroke:#0d0000;stroke-width:1.141;stroke-miterlimit:4;stroke-dasharray:1.141, 6.846;stroke-dashoffset:0;stroke-opacity:1"
       id="path913-9"
       cx="165.72942"
       cy="175.51373"
       rx="6.7275987"
       ry="6.7275991" />
    <ellipse
       ry="6.6294117"
       rx="7.5764709"
       cy="88.076469"
       cx="215.29805"
       id="path936"
       style="fill:#ffd700;fill-opacity:1;stroke:#ffd700;stroke-width:1.314;stroke-miterlimit:4;stroke-dasharray:none;stroke-dashoffset:0;stroke-opacity:1" />
    <path
       id="path938"
       d="m 194.46275,113.64706 c 0,-5.68235 1.26274,-8.83921 6.31373,-9.47059 5.05098,-0.63137 6.94509,-1.89411 5.05098,-6.945095"
       style="fill:none;stroke:#ffd700;stroke-width:1px;stroke-linecap:butt;stroke-linejoin:miter;stroke-opacity:1" />
    <path
       id="path890"
       d="m 144.58432,285.3804 -11.99608,-24.62353 38.51372,-53.0353 114.27844,0.63138 0.63137,-20.8353"
       style="fill:none;stroke:#ffd700;stroke-width:1px;stroke-linecap:butt;stroke-linejoin:miter;stroke-opacity:1" />
    <path
       id="path892"
       d="m 227.9255,207.72157 0.63137,-15.78431 10.10196,-11.36471 -20.8353,-1.26274 10.73334,12.62745"
       style="fill:none;stroke:#ffd700;stroke-width:1px;stroke-linecap:butt;stroke-linejoin:miter;stroke-opacity:1" />
    <path
       sodipodi:nodetypes="ccccc"
       id="path896"
       d="m 316.31765,135.00785 14.52157,22.20392 -5.05098,13.89019 14.52157,1.26275 15.15294,23.36078"
       style="fill:none;stroke:#ffd700;stroke-width:1px;stroke-linecap:butt;stroke-linejoin:miter;stroke-opacity:1" />
    <path
       id="path898"
       d="m 376.29805,223.50589 18.94118,30.30588"
       style="fill:none;stroke:#ffd700;stroke-width:1px;stroke-linecap:butt;stroke-linejoin:miter;stroke-opacity:1" />
    <path
       id="path900"
       d="m 405.97256,215.29804 -25.88628,1.89412"
       style="fill:none;stroke:#ffd700;stroke-width:1px;stroke-linecap:butt;stroke-linejoin:miter;stroke-opacity:1" />
    <path
       id="path902"
       d="m 358.61962,248.76079 10.73333,-23.99216"
       style="fill:none;stroke:#ffd700;stroke-width:1px;stroke-linecap:butt;stroke-linejoin:miter;stroke-opacity:1" />
    <ellipse
       ry="12.206648"
       rx="13.469833"
       cy="124.38032"
       cx="308.74603"
       id="path934"
       style="fill:none;fill-opacity:1;stroke:#0d0000;stroke-width:1.314;stroke-miterlimit:4;stroke-dasharray:none;stroke-dashoffset:0;stroke-opacity:1" />
    <path
       id="path955"
       d="m 236.76471,193.2 16.41569,0.63138 -7.57647,-10.10196 z"
       style="fill:#f2e300;fill-opacity:1;stroke:#784421;stroke-width:1px;stroke-linecap:butt;stroke-linejoin:miter;stroke-opacity:1" />
    <ellipse
       ry="7.673522"
       rx="8.3048944"
       style="fill:#f2e300;fill-opacity:1;stroke:#784421;stroke-width:1.75127;stroke-miterlimit:4;stroke-dasharray:none;stroke-dashoffset:0;stroke-opacity:1"
       id="ellipse959"
       cx="358.9353"
       cy="200.46078" />
    <ellipse
       ry="5.682353"
       rx="6.3137255"
       cy="200.77647"
       cx="359.25098"
       id="path957"
       style="fill:#f2e300;fill-opacity:1;stroke:#784421;stroke-width:1.314;stroke-miterlimit:4;stroke-dasharray:none;stroke-dashoffset:0;stroke-opacity:1" />
    <ellipse
       cy="218.45491"
       cx="371.24707"
       id="ellipse959-0"
       style="display:inline;fill:#f2e300;fill-opacity:1;stroke:#784421;stroke-width:1.75127;stroke-miterlimit:4;stroke-dasharray:none;stroke-dashoffset:0;stroke-opacity:1"
       rx="8.3048944"
       ry="7.673522" />
    <ellipse
       style="display:inline;fill:#f2e300;fill-opacity:1;stroke:#784421;stroke-width:1.314;stroke-miterlimit:4;stroke-dasharray:none;stroke-dashoffset:0;stroke-opacity:1"
       id="path957-9"
       cx="371.56274"
       cy="218.7706"
       rx="6.3137255"
       ry="5.682353" />
    <path
       sodipodi:nodetypes="cc"
       id="path984"
       d="m 293.48236,148.37255 c 14.72171,10.49107 41.08439,47.00978 36.72549,58.08628"
       style="fill:none;stroke:#524300;stroke-width:1px;stroke-linecap:butt;stroke-linejoin:miter;stroke-opacity:1" />
  </g>
  <g
     inkscape:label="Obelisks"
     id="layer1"
     inkscape:groupmode="layer">
    <g
       id="g866">
      <path
         style="fill:#00ccff;stroke:none;stroke-width:1px;stroke-linecap:butt;stroke-linejoin:miter;stroke-opacity:1"
         d="M 251.28628,77.658825 282.85491,29.674511 217.19216,27.780393 Z"
         id="path849" />
      <path
         style="fill:#55ddff;stroke:none;stroke-width:1px;stroke-linecap:butt;stroke-linejoin:miter;stroke-opacity:1"
         d="m 251.28628,77.658825 -1.26274,17.678432 -2.52549,-3.156863 -0.63138,-7.57647 -26.51765,-39.776472 -1.89411,2.52549 -3.15687,-7.57647 1.89412,-11.996079 z"
         id="path851" />
      <path
         style="fill:#55ddff;stroke:none;stroke-width:1px;stroke-linecap:butt;stroke-linejoin:miter;stroke-opacity:1"
         d="m 282.85491,29.674511 -0.63137,15.152941 -32.2,50.509805 1.26274,-17.678432 z"
         id="path853" />
    </g>
    <g
       id="g875">
      <path
         style="fill:#ccff00;stroke:none;stroke-width:1px;stroke-linecap:butt;stroke-linejoin:miter;stroke-opacity:1"
         d="m 390.81962,289.80001 68.18823,1.89411 -38.51372,-63.76862 z"
         id="path843" />
      <path
         style="fill:#aad400;stroke:none;stroke-width:1px;stroke-linecap:butt;stroke-linejoin:miter;stroke-opacity:1"
         d="m 390.81962,289.80001 -11.36471,3.78823 71.3451,2.52549 8.20784,-4.41961 z"
         id="path845" />
      <path
         style="fill:#d4ff2a;stroke:none;stroke-width:1px;stroke-linecap:butt;stroke-linejoin:miter;stroke-opacity:1"
         d="m 390.81962,289.80001 -11.36471,3.78823 32.2,-61.87451 8.83922,-3.78823 z"
         id="path847" />
    </g>
    <g
       id="g884">
      <path
         style="fill:#ff0000;stroke:none;stroke-width:1px;stroke-linecap:butt;stroke-linejoin:miter;stroke-opacity:1"
         d="m 123.74902,287.90589 -73.870587,6.9451 37.250981,-67.55687 z"
         id="path14" />
      <path
         style="fill:#d40000;stroke:none;stroke-width:1px;stroke-linecap:butt;stroke-linejoin:miter;stroke-opacity:1"
         d="m 49.878433,294.85099 73.870587,-6.9451 6.9451,4.41961 -67.556864,6.31372 z"
         id="path839" />
      <path
         style="fill:#ff2a2a;stroke:none;stroke-width:1px;stroke-linecap:butt;stroke-linejoin:miter;stroke-opacity:1"
         d="m 123.74902,287.90589 6.9451,4.41961 -31.568627,-58.71765 -11.996079,-6.31373 z"
         id="path841" />
    </g>
    <path
       id="path998"
       d="m 130.69412,284.74903 8.83922,8.83921 18.94117,0.63137 6.31373,-6.31372 -8.20784,-2.52549 z"
       style="fill:#554400;stroke:none;stroke-width:1px;stroke-linecap:butt;stroke-linejoin:miter;stroke-opacity:1" />
  </g>
</svg>
