<?xml version="1.0" encoding="UTF-8" standalone="no"?>
<svg
   xmlns:dc="http://purl.org/dc/elements/1.1/"
   xmlns:cc="http://creativecommons.org/ns#"
   xmlns:rdf="http://www.w3.org/1999/02/22-rdf-syntax-ns#"
   xmlns:svg="http://www.w3.org/2000/svg"
   xmlns="http://www.w3.org/2000/svg"
   xmlns:sodipodi="http://sodipodi.sourceforge.net/DTD/sodipodi-0.dtd"
   xmlns:inkscape="http://www.inkscape.org/namespaces/inkscape"
   sodipodi:docname="f shark.svg"
   inkscape:version="1.0 (4035a4fb49, 2020-05-01)"
   id="svg8"
   version="1.1"
   viewBox="0 0 247 125"
   height="125mm"
   width="247mm">
  <title
     id="title943">Female Shark</title>
  <defs
     id="defs2" />
  <sodipodi:namedview
     inkscape:window-maximized="1"
     inkscape:window-y="-8"
     inkscape:window-x="-8"
     inkscape:window-height="847"
     inkscape:window-width="1600"
     showgrid="true"
     inkscape:document-rotation="0"
     inkscape:current-layer="layer1"
     inkscape:document-units="mm"
     inkscape:cy="370.27532"
     inkscape:cx="450.56243"
     inkscape:zoom="0.7"
     inkscape:pageshadow="2"
     inkscape:pageopacity="0.0"
     borderopacity="1.0"
     bordercolor="#666666"
     pagecolor="#ffffff"
     id="base">
    <inkscape:grid
       id="grid10"
       type="xygrid" />
  </sodipodi:namedview>
  <metadata
     id="metadata5">
    <rdf:RDF>
      <cc:Work
         rdf:about="">
        <dc:format>image/svg+xml</dc:format>
        <dc:type
           rdf:resource="http://purl.org/dc/dcmitype/StillImage" />
        <dc:title>Female Shark</dc:title>
        <cc:license
           rdf:resource="http://creativecommons.org/licenses/by-sa/4.0/" />
        <dc:creator>
          <cc:Agent>
            <dc:title>Sharkbyteprojects</dc:title>
          </cc:Agent>
        </dc:creator>
      </cc:Work>
      <cc:License
         rdf:about="http://creativecommons.org/licenses/by-sa/4.0/">
        <cc:permits
           rdf:resource="http://creativecommons.org/ns#Reproduction" />
        <cc:permits
           rdf:resource="http://creativecommons.org/ns#Distribution" />
        <cc:requires
           rdf:resource="http://creativecommons.org/ns#Notice" />
        <cc:requires
           rdf:resource="http://creativecommons.org/ns#Attribution" />
        <cc:permits
           rdf:resource="http://creativecommons.org/ns#DerivativeWorks" />
        <cc:requires
           rdf:resource="http://creativecommons.org/ns#ShareAlike" />
      </cc:License>
    </rdf:RDF>
  </metadata>
  <g
     inkscape:label="Ebene 2"
     id="layer2"
     inkscape:groupmode="layer">
    <g
       transform="translate(-9.5250005,-40.745853)"
       id="g101">
      <path
         style="fill:#333333;stroke:#000000;stroke-width:0.264583px;stroke-linecap:butt;stroke-linejoin:miter;stroke-opacity:1"
         d="m 206.375,125.67708 -2.64584,-1.32291 h 1.85209 z"
         id="path80"
         sodipodi:nodetypes="cccc" />
      <path
         sodipodi:nodetypes="cccc"
         id="path82"
         d="m 206.375,126.73542 -2.64584,-1.32291 h 1.85209 z"
         style="fill:#333333;stroke:#000000;stroke-width:0.264583px;stroke-linecap:butt;stroke-linejoin:miter;stroke-opacity:1" />
      <path
         style="fill:#333333;stroke:#000000;stroke-width:0.324047px;stroke-linecap:butt;stroke-linejoin:miter;stroke-opacity:1"
         d="m 207.69792,128.32293 -3.96876,-1.32291 h 2.77813 z"
         id="path84"
         sodipodi:nodetypes="cccc" />
      <path
         sodipodi:nodetypes="cccc"
         id="path86"
         d="m 209.02083,129.91044 -5.29167,-1.32291 h 3.70417 z"
         style="fill:#333333;stroke:#000000;stroke-width:0.374177px;stroke-linecap:butt;stroke-linejoin:miter;stroke-opacity:1" />
      <path
         style="fill:#333333;stroke:#000000;stroke-width:0.374177px;stroke-linecap:butt;stroke-linejoin:miter;stroke-opacity:1"
         d="m 210.07917,131.49795 -5.29167,-1.32291 h 3.70417 z"
         id="path88"
         sodipodi:nodetypes="cccc" />
      <path
         sodipodi:nodetypes="cccc"
         id="path90"
         d="m 211.13751,133.08546 -5.29167,-1.32291 h 3.70417 z"
         style="fill:#333333;stroke:#000000;stroke-width:0.374177px;stroke-linecap:butt;stroke-linejoin:miter;stroke-opacity:1" />
      <path
         style="fill:#333333;stroke:#000000;stroke-width:0.374177px;stroke-linecap:butt;stroke-linejoin:miter;stroke-opacity:1"
         d="m 212.19585,134.67297 -5.29167,-1.32291 h 3.70417 z"
         id="path92"
         sodipodi:nodetypes="cccc" />
    </g>
    <g
       transform="translate(-9.5250005,-40.745853)"
       id="g78">
      <path
         style="fill:#1a1a1a;stroke:#000000;stroke-width:0.264583px;stroke-linecap:butt;stroke-linejoin:miter;stroke-opacity:1"
         d="m 201.08333,127 2.64583,-2.64583 h -2.64583 z"
         id="path37" />
      <path
         id="path39"
         d="m 201.08333,130.17502 2.64583,-2.64583 h -2.64583 z"
         style="fill:#1a1a1a;stroke:#000000;stroke-width:0.264583px;stroke-linecap:butt;stroke-linejoin:miter;stroke-opacity:1" />
      <path
         style="fill:#1a1a1a;stroke:#000000;stroke-width:0.264583px;stroke-linecap:butt;stroke-linejoin:miter;stroke-opacity:1"
         d="m 201.08333,132.82087 2.64583,-2.64583 h -2.64583 z"
         id="path41" />
      <path
         id="path43"
         d="m 201.08333,135.46672 2.64583,-2.64583 h -2.64583 z"
         style="fill:#1a1a1a;stroke:#000000;stroke-width:0.264583px;stroke-linecap:butt;stroke-linejoin:miter;stroke-opacity:1" />
      <path
         style="fill:#1a1a1a;stroke:#000000;stroke-width:0.264583px;stroke-linecap:butt;stroke-linejoin:miter;stroke-opacity:1"
         d="m 201.08333,124.35415 2.64583,-2.64583 h -2.64583 z"
         id="path45" />
    </g>
    <g
       transform="translate(-9.5250005,-40.745853)"
       id="g71">
      <path
         id="path55"
         d="m 201.08333,125.41249 2.64583,-2.64583 h -2.64583 z"
         style="fill:#000000;stroke:#000000;stroke-width:0.264583px;stroke-linecap:butt;stroke-linejoin:miter;stroke-opacity:1" />
      <path
         style="fill:#000000;stroke:#000000;stroke-width:0.264583px;stroke-linecap:butt;stroke-linejoin:miter;stroke-opacity:1"
         d="m 201.08333,128.05834 2.64583,-2.64583 h -2.64583 z"
         id="path57" />
      <path
         id="path59"
         d="m 201.08333,130.70419 2.64583,-2.64583 h -2.64583 z"
         style="fill:#000000;stroke:#000000;stroke-width:0.264583px;stroke-linecap:butt;stroke-linejoin:miter;stroke-opacity:1" />
      <path
         style="fill:#000000;stroke:#000000;stroke-width:0.264583px;stroke-linecap:butt;stroke-linejoin:miter;stroke-opacity:1"
         d="m 201.08333,133.35004 2.64583,-2.64583 h -2.64583 z"
         id="path61" />
      <path
         id="path63"
         d="m 201.08333,136.52506 2.64583,-2.64583 h -2.64583 z"
         style="fill:#000000;stroke:#000000;stroke-width:0.264583px;stroke-linecap:butt;stroke-linejoin:miter;stroke-opacity:1" />
    </g>
    <path
       id="path103"
       d="m 202.1416,93.133109 -5.29166,-1.322911 h 5.29166 z"
       style="fill:#000000;stroke:#000000;stroke-width:0.264583px;stroke-linecap:butt;stroke-linejoin:miter;stroke-opacity:1" />
    <path
       style="fill:#000000;stroke:#000000;stroke-width:0.264583px;stroke-linecap:butt;stroke-linejoin:miter;stroke-opacity:1"
       d="m 201.08326,91.545608 -5.29166,-1.322911 h 5.29166 z"
       id="path105" />
    <path
       id="path107"
       d="m 200.55409,89.958107 -5.29166,-1.322911 h 5.29166 z"
       style="fill:#000000;stroke:#000000;stroke-width:0.264583px;stroke-linecap:butt;stroke-linejoin:miter;stroke-opacity:1" />
    <path
       style="fill:#000000;stroke:#000000;stroke-width:0.264583px;stroke-linecap:butt;stroke-linejoin:miter;stroke-opacity:1"
       d="m 199.49575,88.370606 -5.29166,-1.322911 h 5.29166 z"
       id="path109" />
    <path
       id="path111"
       d="m 198.96658,86.783105 -5.29166,-1.322911 h 5.29166 z"
       style="fill:#000000;stroke:#000000;stroke-width:0.264583px;stroke-linecap:butt;stroke-linejoin:miter;stroke-opacity:1" />
    <path
       style="fill:#000000;stroke:#000000;stroke-width:0.264583px;stroke-linecap:butt;stroke-linejoin:miter;stroke-opacity:1"
       d="m 198.43741,85.195604 -5.29166,-1.322911 h 5.29166 z"
       id="path113" />
  </g>
  <g
     id="layer1"
     inkscape:groupmode="layer"
     inkscape:label="Ebene 1">
    <path
       d="m 112.18327,1.5874788 c 0,0 3.94483,4.3305576 8.19175,9.5756392 l 5.03742,1.007689 -3.34502,1.115177 c 4.48538,5.713031 8.77722,11.946858 8.63668,14.759823 C 102.77283,27.563474 35.45416,46.037474 35.45416,46.037474 35.45416,40.745807 2.6458312,3.7041446 2.6458312,3.7041446 6.4888011,9.7759663 9.7358203,16.607031 12.278314,23.848132 l 4.655013,1.551842 h -4.122746 c 0.252294,0.754189 0.497424,1.512213 0.734322,2.274279 l 6.034257,3.017387 -5.454964,-1.09089 c 0.261743,0.898358 0.512902,1.801246 0.752926,2.708362 l 2.056205,1.028362 -1.650545,0.550354 c 5.011764,20.102973 4.639924,42.01402 -3.263367,59.169844 C 28.694424,83.774883 31.9646,74.629204 35.45416,56.09164 c 0,0 22.923926,20.008808 53.585358,33.42311 42.333282,18.52078 102.518752,7.322508 102.518752,7.322508 v -21.16654 l 10.58333,20.108216 c 0,0 10.58334,1.058324 42.33334,-20.108216 0,0 -66.17619,-41.072984 -97.89584,-47.624911 C 143.60416,20.14151 112.18327,1.5874788 112.18327,1.5874788 Z"
       style="fill:#00d4aa;stroke:#000000;stroke-width:0.264583px;stroke-linecap:butt;stroke-linejoin:miter;stroke-opacity:1"
       id="path12" />
    <path
       d="m 180.97494,49.212474 c 0,0 2.81539,3.283262 5.35316,3.666442 a 2.6458333,2.6458333 0 0 0 -0.0615,0.566891 2.6458333,2.6458333 0 0 0 2.64584,2.645833 2.6458333,2.6458333 0 0 0 2.64583,-2.645833 2.6458333,2.6458333 0 0 0 -2.64583,-2.645833 2.6458333,2.6458333 0 0 0 -2.00867,0.923975 c -3.9514,-0.536877 -5.92883,-2.511475 -5.92883,-2.511475 z"
       style="fill:#000000;stroke:#000000;stroke-width:0.1"
       id="path14" />
    <path
       id="path16"
       d="m 167.49653,99.483093 c 5.29167,-10.58327 0,-21.16654 0,-21.16654"
       style="fill:none;stroke:#000000;stroke-width:0.264583px;stroke-linecap:butt;stroke-linejoin:miter;stroke-opacity:1" />
    <path
       style="fill:none;stroke:#000000;stroke-width:0.264583px;stroke-linecap:butt;stroke-linejoin:miter;stroke-opacity:1"
       d="m 162.98326,100.01226 c 5.29167,-10.58327 0,-21.16654 0,-21.16654"
       id="path18" />
    <path
       id="path20"
       d="m 158.74993,100.01226 c 5.29167,-10.58327 0,-21.16654 0,-21.16654"
       style="fill:none;stroke:#000000;stroke-width:0.264583px;stroke-linecap:butt;stroke-linejoin:miter;stroke-opacity:1" />
    <path
       id="path22"
       d="m 141.28744,86.253988 c -2.64584,21.166582 -37.04167,37.041582 -37.04167,37.041582 0,0 29.10417,-23.812497 26.45833,-37.041582"
       style="fill:#00d4aa;stroke:#000000;stroke-width:0.264583px;stroke-linecap:butt;stroke-linejoin:miter;stroke-opacity:1" />
    <path
       sodipodi:nodetypes="zsz"
       id="path115"
       d="m 123.34869,35.983308 c 0.37797,2.618694 -36.283725,7.910346 -36.661699,5.291652 -0.377974,-2.618694 36.283729,-7.910346 36.661699,-5.291652 z"
       style="fill:#87deaa;stroke:none;stroke-width:0.264583px;stroke-linecap:butt;stroke-linejoin:miter;stroke-opacity:1" />
  </g>
</svg>
