<?xml version="1.0" encoding="UTF-8" standalone="no"?>
<svg
   xmlns:dc="http://purl.org/dc/elements/1.1/"
   xmlns:cc="http://creativecommons.org/ns#"
   xmlns:rdf="http://www.w3.org/1999/02/22-rdf-syntax-ns#"
   xmlns:svg="http://www.w3.org/2000/svg"
   xmlns="http://www.w3.org/2000/svg"
   xmlns:sodipodi="http://sodipodi.sourceforge.net/DTD/sodipodi-0.dtd"
   xmlns:inkscape="http://www.inkscape.org/namespaces/inkscape"
   sodipodi:docname="Python Rest LOGO.svg"
   inkscape:version="1.0 (4035a4fb49, 2020-05-01)"
   id="svg8"
   version="1.1"
   viewBox="0 0 170 100"
   height="100mm"
   width="170mm">
  <title
     id="title101">Python rest</title>
  <defs
     id="defs2">
    <rect
       id="rect44"
       height="47.625"
       width="113.77083"
       y="5.2916667"
       x="92.604167" />
  </defs>
  <sodipodi:namedview
     inkscape:window-maximized="1"
     inkscape:window-y="-8"
     inkscape:window-x="-8"
     inkscape:window-height="705"
     inkscape:window-width="1366"
     height="100mm"
     showgrid="true"
     inkscape:document-rotation="0"
     inkscape:current-layer="g38"
     inkscape:document-units="mm"
     inkscape:cy="162.68177"
     inkscape:cx="422.51433"
     inkscape:zoom="1.4"
     inkscape:pageshadow="2"
     inkscape:pageopacity="0.0"
     borderopacity="1.0"
     bordercolor="#666666"
     pagecolor="#ffffff"
     id="base">
    <inkscape:grid
       id="grid24"
       type="xygrid" />
  </sodipodi:namedview>
  <metadata
     id="metadata5">
    <rdf:RDF>
      <cc:Work
         rdf:about="">
        <dc:format>image/svg+xml</dc:format>
        <dc:type
           rdf:resource="http://purl.org/dc/dcmitype/StillImage" />
        <dc:title>Python rest</dc:title>
        <cc:license
           rdf:resource="http://creativecommons.org/licenses/by-sa/4.0/" />
        <dc:creator>
          <cc:Agent>
            <dc:title>Sharkbyteprojects</dc:title>
          </cc:Agent>
        </dc:creator>
      </cc:Work>
      <cc:License
         rdf:about="http://creativecommons.org/licenses/by-sa/4.0/">
        <cc:permits
           rdf:resource="http://creativecommons.org/ns#Reproduction" />
        <cc:permits
           rdf:resource="http://creativecommons.org/ns#Distribution" />
        <cc:requires
           rdf:resource="http://creativecommons.org/ns#Notice" />
        <cc:requires
           rdf:resource="http://creativecommons.org/ns#Attribution" />
        <cc:permits
           rdf:resource="http://creativecommons.org/ns#DerivativeWorks" />
        <cc:requires
           rdf:resource="http://creativecommons.org/ns#ShareAlike" />
      </cc:License>
    </rdf:RDF>
  </metadata>
  <g
     id="layer1"
     inkscape:groupmode="layer"
     inkscape:label="Ebene 1">
    <rect
       y="0"
       x="95.25"
       height="99.998329"
       width="74.650299"
       id="rect74"
       style="fill:#000000;fill-opacity:1;stroke-width:0.245416" />
    <g
       transform="translate(9.9999999e-7,2.6458347)"
       id="g38">
      <path
         style="fill:#ffd745;fill-opacity:1;stroke:none;stroke-width:0.264583px;stroke-linecap:butt;stroke-linejoin:miter;stroke-opacity:1"
         d="m 68.791666,71.437499 c 0,10.583333 0,10.583333 0,10.583333 0,0 -5.291667,7.9375 -21.166667,7.9375 -15.874999,0 -21.166666,-7.9375 -21.166666,-7.9375 V 55.562499 c 0,0 2.645833,-7.9375 7.9375,-7.9375 5.291667,0 23.8125,0 23.8125,0 0,0 13.229166,0 13.229166,-10.583333 0,-10.583333 0,-10.583333 0,-10.583333 h 10.583333 c 0,0 7.9375,0 7.9375,18.520833 0,18.520833 -7.9375,21.166666 -7.9375,21.166666 H 47.624999 c 0,0 0,0 0,2.645834 0,2.645833 5.291667,2.645833 5.291667,2.645833 z"
         id="path26" />
      <path
         id="path28"
         d="m 26.458333,21.166666 c 0,-10.583333 0,-10.583333 0,-10.583333 0,0 5.291667,-7.9374997 21.166667,-7.9374997 15.874999,0 21.166666,7.9374997 21.166666,7.9374997 v 26.458333 c 0,0 -2.645833,7.9375 -7.9375,7.9375 -5.291667,0 -23.8125,0 -23.8125,0 0,0 -13.229166,0 -13.229166,10.583333 0,10.583333 0,10.583333 0,10.583333 H 13.229167 c 0,0 -7.9374997,0 -7.9374997,-18.520833 0,-18.520833 7.9374997,-21.166666 7.9374997,-21.166666 H 47.625 c 0,0 0,0 0,-2.645834 0,-2.645833 -5.291667,-2.645833 -5.291667,-2.645833 z"
         style="fill:#3c78a9;fill-opacity:1;stroke:none;stroke-width:0.264583px;stroke-linecap:butt;stroke-linejoin:miter;stroke-opacity:1" />
      <ellipse
         style="fill:#ffffff;stroke-width:0.187713"
         id="path30"
         cx="35.999447"
         cy="13.095531"
         rx="3.6880493"
         ry="3.8216841" />
      <ellipse
         ry="3.8216841"
         rx="3.6880493"
         cy="78.843834"
         cx="59.251896"
         id="ellipse32"
         style="fill:#ffffff;stroke-width:0.187713" />
    </g>
    <text
       style="font-style:normal;font-weight:normal;font-size:10.5833px;line-height:1.25;font-family:sans-serif;letter-spacing:0px;word-spacing:0px;white-space:pre;shape-inside:url(#rect44);fill:#000000;fill-opacity:1;stroke:none;"
       id="text42"
       xml:space="preserve" />
    <text
       transform="scale(0.92941545,1.0759451)"
       id="text50"
       y="51.250908"
       x="103.63322"
       style="font-style:normal;font-weight:normal;font-size:24.3432px;line-height:1.25;font-family:sans-serif;letter-spacing:0px;word-spacing:0px;fill:#00ff00;fill-opacity:1;stroke:none;stroke-width:0.608582"
       xml:space="preserve"><tspan
         style="fill:#00ff00;stroke-width:0.608582"
         y="51.250908"
         x="103.63322"
         id="tspan48"
         sodipodi:role="line">REST</tspan></text>
    <path
       transform="scale(0.26458333)"
       d="m 537.11328,12.447266 c -3.50916,0 -6.75712,0.710655 -9.74219,2.132812 -2.96226,1.422157 -5.44593,3.474077 -7.45117,6.154297 -2.0964,2.816966 -3.69141,6.208197 -4.78515,10.173828 -1.09377,3.938282 -1.64063,8.395497 -1.64063,13.373047 0,5.059598 0.54686,9.557811 1.64063,13.496094 1.11654,3.93828 2.6992,7.261182 4.75,9.96875 2.05082,2.70757 4.53643,4.773154 7.45312,6.195312 2.93952,1.422158 6.19787,2.132813 9.77539,2.132813 3.66864,0 6.92704,-0.696988 9.77539,-2.091797 2.87113,-1.394807 5.3548,-3.474058 7.45117,-6.236328 2.02802,-2.652868 3.60023,-5.962103 4.7168,-9.927735 1.13933,-3.992977 1.70898,-8.504857 1.70898,-13.537109 0,-5.032248 -0.55923,-9.530463 -1.67578,-13.496094 -1.09377,-3.96563 -2.6764,-7.315863 -4.75,-10.050781 -2.02799,-2.65287 -4.50126,-4.691124 -7.41796,-6.113281 -2.89394,-1.449507 -6.16274,-2.173828 -9.8086,-2.173828 z M 370.85938,13.71875 388.83984,48.875 v 25.927734 h 6.76758 V 48.013672 L 413.51758,13.71875 h -7.21289 L 392.25781,41.041016 378.3457,13.71875 Z m 42.86328,0 v 7.220703 h 18.18359 v 53.863281 h 6.76758 V 20.939453 h 18.18359 V 13.71875 Z m 50.03906,0 v 61.083984 h 6.76758 v -29.90625 h 25.39648 v 29.90625 h 6.76758 V 13.71875 h -6.76758 V 37.675781 H 470.5293 V 13.71875 Z m 107.73633,0 v 61.083984 h 6.32226 V 20.160156 l 24.13281,54.642578 h 8.37305 V 13.71875 h -6.32226 V 63.603516 L 581.99023,13.71875 Z M 360,16.332031 v 10.890625 c 0.53339,1.486793 0.81055,3.201116 0.81055,5.16211 0,1.805046 -0.22784,3.431353 -0.6836,4.880859 -0.0356,0.11929 -0.087,0.235138 -0.12695,0.353516 v 11.230468 c 1.23102,-0.871637 2.35822,-1.912454 3.375,-3.132812 1.41278,-1.69565 2.50649,-3.690951 3.28125,-5.988281 0.79753,-2.324682 1.19531,-4.841261 1.19531,-7.548828 0,-3.555394 -0.5345,-6.495633 -1.60547,-8.820313 -1.04819,-2.32468 -2.54165,-4.267269 -4.47851,-5.826172 C 361.20952,17.086681 360.61325,16.696198 360,16.332031 Z m 177.14648,3.128907 c 5.12706,-10e-7 9.1725,2.161251 12.13477,6.482421 2.96227,4.293821 4.44336,10.40663 4.44336,18.337891 0,8.013311 -1.50387,14.153453 -4.51172,18.419922 -2.98507,4.239126 -7.00773,6.359375 -12.06641,6.359375 -5.05864,0 -9.09177,-2.120249 -12.0996,-6.359375 -3.00785,-4.266469 -4.51172,-10.406611 -4.51172,-18.419922 0,-7.931261 1.47066,-14.04407 4.41015,-18.337891 2.9623,-4.32117 7.02861,-6.482421 12.20117,-6.482421 z"
       style="font-style:normal;font-weight:normal;font-size:20.2907px;line-height:1.25;font-family:sans-serif;letter-spacing:0px;word-spacing:0px;fill:#ffd745;fill-opacity:1;stroke:none;stroke-width:1.91724"
       id="path61" />
    <path
       d="m 156.10417,52.916664 h 10.58333 v 2.645833 h -10.58333 z"
       style="fill:#00ff00;fill-opacity:1;stroke-width:0.264583"
       id="rect58" />
    <path
       transform="scale(0.26458333)"
       d="m 334.56055,13.71875 v 61.083984 h 6.76757 V 52.035156 h 6.76758 c 3.64588,0 6.66598,-0.519324 9.0586,-1.558594 1.00609,-0.448513 1.95244,-0.994466 2.8457,-1.626953 V 37.619141 c -0.44549,1.320045 -1.14606,2.586291 -2.12891,3.791015 -1.07096,1.285413 -2.46091,2.228398 -4.16992,2.830078 -1.70901,0.574332 -3.92967,0.861329 -6.66406,0.861328 h -5.70899 V 20.693359 h 6.69922 c 2.14198,0 3.90884,0.191331 5.29883,0.574219 1.41278,0.35554 2.66601,0.956863 3.75977,1.804688 1.25328,0.98457 2.1875,2.25555 2.80273,3.814453 0.0423,0.107259 0.0719,0.226081 0.11133,0.335937 V 16.332031 c -1.18969,-0.706471 -2.47275,-1.272896 -3.87109,-1.669922 -2.11919,-0.629031 -4.70635,-0.943359 -7.75977,-0.943359 z"
       style="font-style:normal;font-weight:normal;font-size:20.2907px;line-height:1.25;font-family:sans-serif;letter-spacing:0px;word-spacing:0px;fill:#3c78a9;fill-opacity:1;stroke:none;stroke-width:1.91724"
       id="path83" />
    <g
       style="font-style:normal;font-weight:normal;font-size:10.5833px;line-height:1.25;font-family:sans-serif;letter-spacing:0px;word-spacing:0px;fill:#00ff00;fill-opacity:1;stroke:none;stroke-width:0.264583"
       id="text105"
       aria-label="SHARKBYTE">
      <path
         id="path107"
         style="fill:#00ff00;stroke-width:0.264583"
         d="m 103.95376,63.760607 q 0,0.449583 -0.21187,0.888832 -0.20671,0.439248 -0.58394,0.744138 -0.41341,0.330728 -0.96635,0.516763 -0.54777,0.186034 -1.32291,0.186034 -0.83199,0 -1.498612,-0.155029 -0.661457,-0.155029 -1.348751,-0.459919 v -1.281571 h 0.07235 q 0.583942,0.485757 1.34875,0.749306 0.764803,0.263549 1.436593,0.263549 0.95085,0 1.47795,-0.356566 0.53226,-0.356567 0.53226,-0.950844 0,-0.511595 -0.25321,-0.754473 -0.24805,-0.242879 -0.75964,-0.377237 -0.38758,-0.103352 -0.84233,-0.170532 -0.44958,-0.06718 -0.95601,-0.170531 -1.023185,-0.217041 -1.519277,-0.738971 -0.490924,-0.527098 -0.490924,-1.369421 0,-0.966346 0.816485,-1.581294 0.816485,-0.620115 2.072216,-0.620115 0.81132,0 1.48828,0.155029 0.67695,0.155029 1.19888,0.382404 v 1.209225 h -0.0723 q -0.43925,-0.372069 -1.15755,-0.614948 -0.71313,-0.248046 -1.46244,-0.248046 -0.82165,0 -1.322908,0.341063 -0.496092,0.341064 -0.496092,0.878497 0,0.480589 0.248046,0.754474 0.248046,0.273884 0.873324,0.418577 0.33073,0.07235 0.94051,0.1757 0.60978,0.103352 1.03353,0.211872 0.85782,0.227376 1.2919,0.687295 0.43408,0.459918 0.43408,1.286739 z" />
      <path
         id="path109"
         style="fill:#00ff00;stroke-width:0.264583"
         d="m 111.48299,65.956848 h -1.02319 v -3.7672 h -3.83954 v 3.7672 h -1.02319 v -7.694596 h 1.02319 v 3.017894 h 3.83954 v -3.017894 h 1.02319 z" />
      <path
         id="path111"
         style="fill:#00ff00;stroke-width:0.264583"
         d="m 119.62201,65.956848 h -1.09037 l -0.75448,-2.144565 h -3.32795 l -0.75447,2.144565 h -1.03869 l 2.80085,-7.694596 h 1.36425 z m -2.16007,-3.023062 -1.34875,-3.777535 -1.35392,3.777535 z" />
      <path
         id="path113"
         style="fill:#00ff00;stroke-width:0.264583"
         d="m 127.15641,65.956848 h -1.32808 l -2.57348,-3.059235 h -1.44177 v 3.059235 h -1.02319 v -7.694596 h 2.1549 q 0.69763,0 1.16272,0.09302 0.46508,0.08785 0.83715,0.320393 0.41858,0.263549 0.65112,0.666624 0.23771,0.397907 0.23771,1.012855 0,0.831988 -0.41857,1.395259 -0.41858,0.558104 -1.15238,0.842323 z m -2.39261,-5.529361 q 0,-0.330728 -0.11886,-0.583941 -0.11369,-0.258382 -0.3824,-0.434081 -0.22221,-0.149861 -0.5271,-0.206705 -0.30489,-0.06201 -0.7183,-0.06201 h -1.20406 v 2.904207 h 1.03353 q 0.48575,0 0.84749,-0.08268 0.36173,-0.08785 0.61494,-0.320393 0.23255,-0.217041 0.34107,-0.496092 0.11369,-0.28422 0.11369,-0.718301 z" />
      <path
         id="path115"
         style="fill:#00ff00;stroke-width:0.264583"
         d="m 134.33424,65.956848 h -1.32808 l -3.04373,-3.426136 -0.76481,0.816485 v 2.609651 h -1.02319 v -7.694596 h 1.02319 v 4.015246 l 3.73619,-4.015246 h 1.24023 l -3.43647,3.617339 z" />
      <path
         id="path117"
         style="fill:#00ff00;stroke-width:0.264583"
         d="m 141.28986,63.590075 q 0,0.573607 -0.21704,1.012855 -0.21704,0.439248 -0.58394,0.723468 -0.43408,0.341063 -0.95601,0.485757 -0.51676,0.144693 -1.31774,0.144693 h -2.72851 v -7.694596 h 2.27892 q 0.84233,0 1.2609,0.06201 0.41858,0.06201 0.80099,0.258382 0.42374,0.222208 0.61494,0.573606 0.19121,0.346231 0.19121,0.831988 0,0.547769 -0.27906,0.935341 -0.27905,0.382404 -0.74413,0.614947 v 0.04134 q 0.78031,0.160197 1.22989,0.687295 0.44958,0.52193 0.44958,1.322912 z m -1.72082,-3.467477 q 0,-0.279052 -0.093,-0.470255 -0.093,-0.191202 -0.29972,-0.310057 -0.24288,-0.139526 -0.58911,-0.170532 -0.34624,-0.03617 -0.85783,-0.03617 h -1.21956 v 2.222079 h 1.32291 q 0.48059,0 0.76481,-0.04651 0.28422,-0.05168 0.5271,-0.206705 0.24288,-0.155029 0.34106,-0.397908 0.10335,-0.248046 0.10335,-0.583941 z m 0.65629,3.508818 q 0,-0.465086 -0.13952,-0.738971 -0.13953,-0.273884 -0.50643,-0.465086 -0.24805,-0.129191 -0.60461,-0.165364 -0.3514,-0.04134 -0.85783,-0.04134 h -1.60713 v 2.862865 h 1.35392 q 0.67179,0 1.1007,-0.06718 0.42892,-0.07235 0.7028,-0.258381 0.28939,-0.201538 0.42375,-0.459919 0.13435,-0.258381 0.13435,-0.666624 z" />
      <path
         id="path119"
         style="fill:#00ff00;stroke-width:0.264583"
         d="m 148.18865,58.262252 -2.70784,4.320136 v 3.37446 h -1.02319 v -3.26594 l -2.71817,-4.428656 h 1.13171 l 2.10322,3.441639 2.1239,-3.441639 z" />
      <path
         id="path121"
         style="fill:#00ff00;stroke-width:0.264583"
         d="m 154.7412,59.171754 h -2.74918 v 6.785094 h -1.02319 v -6.785094 h -2.74918 v -0.909502 h 6.52155 z" />
      <path
         id="path123"
         style="fill:#00ff00;stroke-width:0.264583"
         d="m 160.8545,65.956848 h -5.06944 v -7.694596 h 5.06944 v 0.909502 h -4.04625 v 2.108392 h 4.04625 v 0.909502 h -4.04625 v 2.857698 h 4.04625 z" />
    </g>
  </g>
</svg>
